<?xml version="1.0" encoding="utf-8"?>
<!-- Generator: Adobe Illustrator 25.0.0, SVG Export Plug-In . SVG Version: 6.00 Build 0)  -->
<svg version="1.1" id="Layer_1" xmlns="http://www.w3.org/2000/svg" xmlns:xlink="http://www.w3.org/1999/xlink" x="0px" y="0px"
	 viewBox="0 0 362.9 1345.4" style="enable-background:new 0 0 362.9 1345.4;" xml:space="preserve">
<style type="text/css">
	.st0{fill:#1D3B70;}
</style>
<path class="st0" d="M361.7,29.3c-2.6,0.9-30.3,18.4-30.3,18.4L151.9,175.5c-1.4-0.6-3.7-0.3-7.5,0.5c-0.5-0.4-1.1-0.9-2-1.5
	c-3.6-2.4-10.3-14.5-13-21.4c-2.7-6.9-8.7-15.8-16.4-25.8C105.3,117.1,9.5,6.2,7.5,4.2c-2-2-12.3-9.6-4.9,2.5
	C10,18.8,104.1,150.3,128.5,179c-4.8,1.2-9,2.8-9.7,5.6c-1.3,4.9-1.6,5.7,3.1,10.1c2.4,2.3,8.6,6.2,14.2,9.5
	c0.1,4.6,0.7,2.9,0.7,2.9s-32.3,280.3-33.5,292.9c-1.2,12.7-3,21.2-1,24.5c2,3.2,2.9-2.1,2.9-2.1s1.6-5.7,11.1-67.5
	c14.8-90.4,30.7-222.7,33.4-244c0.2,0,0.4,0,0.6-0.1c1.6,0.2,3,0.4,3,0.4l4.2,0.2c0.1,70.3,0.8,992.3,1.5,1133.8l27-0.4L172.4,212.2
	l27.2,1.2c0,0,8.5-0.5,7.7-13.2c-0.7-4.9-1.4-7.7-12.3-11.6c-4.5-1.6-12.5-4.1-20.4-6.5c3.7-1.9,7.3-3.5,10.4-4.4
	c6.9-2.1,26.7-17.6,35.8-24.6c9.1-7.1,128.5-102.9,136.3-112.8C362.7,34.2,364.3,28.4,361.7,29.3z"/>
</svg>
